<svg width="35" height="25" viewBox="0 0 35 25" fill="none" xmlns="http://www.w3.org/2000/svg">
<path fill-rule="evenodd" clip-rule="evenodd" d="M8.33333 1.5H17.5C21.5501 1.5 24.8333 4.78324 24.8333 8.83333V9.0625L28.39 6.83867C29.5203 6.13221 30.945 6.09481 32.1108 6.74097C33.2766 7.38713 34 8.61507 34 9.948V15.052C34.0027 16.3862 33.2804 17.6166 32.114 18.2646C30.9477 18.9126 29.5214 18.8758 28.39 18.1687L24.8333 15.9375V16.1667C24.8333 20.2168 21.5501 23.5 17.5 23.5H8.33333C4.28324 23.5 1 20.2168 1 16.1667V8.83333C1 4.78324 4.28324 1.5 8.33333 1.5Z" stroke="#B82026" stroke-width="1.5" stroke-linecap="round" stroke-linejoin="round"/>
<path fill-rule="evenodd" clip-rule="evenodd" d="M12.9167 16.1667C10.8916 16.1667 9.25 14.5251 9.25 12.5C9.25 10.475 10.8916 8.83337 12.9167 8.83337C14.9417 8.83337 16.5833 10.475 16.5833 12.5C16.5833 13.4725 16.197 14.4051 15.5094 15.0928C14.8218 15.7804 13.8891 16.1667 12.9167 16.1667Z" stroke="#B82026" stroke-width="1.5" stroke-linecap="round" stroke-linejoin="round"/>
<path d="M24.8334 9.0625V15.9375" stroke="#B82026" stroke-width="1.5" stroke-linecap="round"/>
</svg>
