<svg width="85" height="85" viewBox="0 0 85 85" fill="none" xmlns="http://www.w3.org/2000/svg">
<circle cx="42.5" cy="42.5" r="42.5" fill="#B71F25"/>
<circle cx="42.5" cy="42.5" r="40.5" fill="#00562B"/>
<circle cx="42.5" cy="42.5" r="38.5" fill="#B71F25"/>
<path d="M42.7708 70.9583L42.7719 70.2083H42.7708V70.9583ZM70.5416 66.9911L70.4728 67.7379C70.6827 67.7573 70.8912 67.6873 71.047 67.5452C71.2028 67.4031 71.2916 67.202 71.2916 66.9911H70.5416ZM58.7469 65.9041L58.8158 65.1572C58.6381 65.1408 58.4604 65.1883 58.3146 65.2912L58.7469 65.9041ZM26.9018 46.4048C25.125 46.4048 23.6845 44.9644 23.6845 43.1875H22.1845C22.1845 45.7928 24.2965 47.9048 26.9018 47.9048V46.4048ZM23.6845 43.1875C23.6845 41.4107 25.125 39.9703 26.9018 39.9703V38.4703C24.2965 38.4703 22.1845 40.5823 22.1845 43.1875H23.6845ZM26.9018 39.9703C28.6786 39.9703 30.1191 41.4107 30.1191 43.1875H31.6191C31.6191 40.5823 29.5071 38.4703 26.9018 38.4703V39.9703ZM30.1191 43.1875C30.1191 44.9644 28.6786 46.4048 26.9018 46.4048V47.9048C29.5071 47.9048 31.6191 45.7928 31.6191 43.1875H30.1191ZM42.7709 46.4048C40.994 46.4048 39.5536 44.9644 39.5536 43.1875H38.0536C38.0536 45.7928 40.1656 47.9048 42.7709 47.9048V46.4048ZM39.5536 43.1875C39.5536 41.4107 40.994 39.9703 42.7709 39.9703V38.4703C40.1656 38.4703 38.0536 40.5823 38.0536 43.1875H39.5536ZM42.7709 39.9703C44.5477 39.9703 45.9881 41.4107 45.9881 43.1875H47.4881C47.4881 40.5823 45.3761 38.4703 42.7709 38.4703V39.9703ZM45.9881 43.1875C45.9881 44.9644 44.5477 46.4048 42.7709 46.4048V47.9048C45.3761 47.9048 47.4881 45.7928 47.4881 43.1875H45.9881ZM58.6399 46.4048C56.8631 46.4048 55.4227 44.9644 55.4227 43.1875H53.9227C53.9227 45.7928 56.0347 47.9048 58.6399 47.9048V46.4048ZM55.4227 43.1875C55.4227 41.4107 56.8631 39.9703 58.6399 39.9703V38.4703C56.0347 38.4703 53.9227 40.5823 53.9227 43.1875H55.4227ZM58.6399 39.9703C60.4168 39.9703 61.8572 41.4107 61.8572 43.1875H63.3572C63.3572 40.5823 61.2452 38.4703 58.6399 38.4703V39.9703ZM61.8572 43.1875C61.8572 44.9644 60.4168 46.4048 58.6399 46.4048V47.9048C61.2452 47.9048 63.3572 45.7928 63.3572 43.1875H61.8572ZM42.7708 70.2083C27.8476 70.2083 15.75 58.1107 15.75 43.1875H14.25C14.25 58.9391 27.0192 71.7083 42.7708 71.7083V70.2083ZM15.75 43.1875C15.75 28.2644 27.8476 16.1667 42.7708 16.1667V14.6667C27.0192 14.6667 14.25 27.4359 14.25 43.1875H15.75ZM42.7708 16.1667C57.694 16.1667 69.7916 28.2644 69.7916 43.1875H71.2916C71.2916 27.4359 58.5224 14.6667 42.7708 14.6667V16.1667ZM69.7916 43.1875V66.9911H71.2916V43.1875H69.7916ZM70.6104 66.2442L58.8158 65.1572L58.6781 66.6509L70.4728 67.7379L70.6104 66.2442ZM58.3146 65.2912C53.7672 68.4988 48.3368 70.2168 42.7719 70.2083L42.7697 71.7083C48.6449 71.7173 54.3782 69.9035 59.1792 66.5169L58.3146 65.2912Z" fill="white"/>
<path d="M42.7708 70.9583L42.7719 70.2083H42.7708V70.9583ZM70.5416 66.9911L70.4728 67.7379C70.6827 67.7573 70.8912 67.6873 71.047 67.5452C71.2028 67.4031 71.2916 67.202 71.2916 66.9911H70.5416ZM58.7469 65.9041L58.8158 65.1572C58.6381 65.1408 58.4604 65.1883 58.3146 65.2912L58.7469 65.9041ZM26.9018 46.4048C25.125 46.4048 23.6845 44.9644 23.6845 43.1875H22.1845C22.1845 45.7928 24.2965 47.9048 26.9018 47.9048V46.4048ZM23.6845 43.1875C23.6845 41.4107 25.125 39.9703 26.9018 39.9703V38.4703C24.2965 38.4703 22.1845 40.5823 22.1845 43.1875H23.6845ZM26.9018 39.9703C28.6786 39.9703 30.1191 41.4107 30.1191 43.1875H31.6191C31.6191 40.5823 29.5071 38.4703 26.9018 38.4703V39.9703ZM30.1191 43.1875C30.1191 44.9644 28.6786 46.4048 26.9018 46.4048V47.9048C29.5071 47.9048 31.6191 45.7928 31.6191 43.1875H30.1191ZM42.7709 46.4048C40.994 46.4048 39.5536 44.9644 39.5536 43.1875H38.0536C38.0536 45.7928 40.1656 47.9048 42.7709 47.9048V46.4048ZM39.5536 43.1875C39.5536 41.4107 40.994 39.9703 42.7709 39.9703V38.4703C40.1656 38.4703 38.0536 40.5823 38.0536 43.1875H39.5536ZM42.7709 39.9703C44.5477 39.9703 45.9881 41.4107 45.9881 43.1875H47.4881C47.4881 40.5823 45.3761 38.4703 42.7709 38.4703V39.9703ZM45.9881 43.1875C45.9881 44.9644 44.5477 46.4048 42.7709 46.4048V47.9048C45.3761 47.9048 47.4881 45.7928 47.4881 43.1875H45.9881ZM58.6399 46.4048C56.8631 46.4048 55.4227 44.9644 55.4227 43.1875H53.9227C53.9227 45.7928 56.0347 47.9048 58.6399 47.9048V46.4048ZM55.4227 43.1875C55.4227 41.4107 56.8631 39.9703 58.6399 39.9703V38.4703C56.0347 38.4703 53.9227 40.5823 53.9227 43.1875H55.4227ZM58.6399 39.9703C60.4168 39.9703 61.8572 41.4107 61.8572 43.1875H63.3572C63.3572 40.5823 61.2452 38.4703 58.6399 38.4703V39.9703ZM61.8572 43.1875C61.8572 44.9644 60.4168 46.4048 58.6399 46.4048V47.9048C61.2452 47.9048 63.3572 45.7928 63.3572 43.1875H61.8572ZM42.7708 70.2083C27.8476 70.2083 15.75 58.1107 15.75 43.1875H14.25C14.25 58.9391 27.0192 71.7083 42.7708 71.7083V70.2083ZM15.75 43.1875C15.75 28.2644 27.8476 16.1667 42.7708 16.1667V14.6667C27.0192 14.6667 14.25 27.4359 14.25 43.1875H15.75ZM42.7708 16.1667C57.694 16.1667 69.7916 28.2644 69.7916 43.1875H71.2916C71.2916 27.4359 58.5224 14.6667 42.7708 14.6667V16.1667ZM69.7916 43.1875V66.9911H71.2916V43.1875H69.7916ZM70.6104 66.2442L58.8158 65.1572L58.6781 66.6509L70.4728 67.7379L70.6104 66.2442ZM58.3146 65.2912C53.7672 68.4988 48.3368 70.2168 42.7719 70.2083L42.7697 71.7083C48.6449 71.7173 54.3782 69.9035 59.1792 66.5169L58.3146 65.2912Z" fill="white"/>
</svg>
