<svg width="22" height="22" viewBox="0 0 22 22" fill="none" xmlns="http://www.w3.org/2000/svg">
<path d="M10.8879 21.2242L10.889 20.4742H10.8879V21.2242ZM21 19.7797L20.9312 20.5265C21.1412 20.5458 21.3496 20.4759 21.5054 20.3338C21.6612 20.1917 21.75 19.9905 21.75 19.7797H21ZM16.7052 19.3838L16.7741 18.637C16.5964 18.6206 16.4187 18.6681 16.2729 18.771L16.7052 19.3838ZM5.10926 11.8067C4.72565 11.8067 4.41468 11.4957 4.41468 11.1121H2.91468C2.91468 12.3242 3.89723 13.3067 5.10926 13.3067V11.8067ZM4.41468 11.1121C4.41468 10.7285 4.72565 10.4175 5.10926 10.4175V8.91753C3.89723 8.91753 2.91468 9.90009 2.91468 11.1121H4.41468ZM5.10926 10.4175C5.49288 10.4175 5.80385 10.7285 5.80385 11.1121H7.30385C7.30385 9.90009 6.3213 8.91753 5.10926 8.91753V10.4175ZM5.80385 11.1121C5.80385 11.4957 5.49288 11.8067 5.10926 11.8067V13.3067C6.3213 13.3067 7.30385 12.3242 7.30385 11.1121H5.80385ZM10.888 11.8067C10.5044 11.8067 10.1934 11.4957 10.1934 11.1121H8.69345C8.69345 12.3242 9.676 13.3067 10.888 13.3067V11.8067ZM10.1934 11.1121C10.1934 10.7285 10.5044 10.4175 10.888 10.4175V8.91753C9.676 8.91753 8.69345 9.90009 8.69345 11.1121H10.1934ZM10.888 10.4175C11.2716 10.4175 11.5826 10.7285 11.5826 11.1121H13.0826C13.0826 9.90009 12.1001 8.91753 10.888 8.91753V10.4175ZM11.5826 11.1121C11.5826 11.4957 11.2716 11.8067 10.888 11.8067V13.3067C12.1001 13.3067 13.0826 12.3242 13.0826 11.1121H11.5826ZM16.6667 11.8067C16.283 11.8067 15.9721 11.4957 15.9721 11.1121H14.4721C14.4721 12.3242 15.4546 13.3067 16.6667 13.3067V11.8067ZM15.9721 11.1121C15.9721 10.7285 16.283 10.4175 16.6667 10.4175V8.91753C15.4546 8.91753 14.4721 9.90009 14.4721 11.1121H15.9721ZM16.6667 10.4175C17.0503 10.4175 17.3612 10.7285 17.3612 11.1121H18.8612C18.8612 9.90009 17.8787 8.91753 16.6667 8.91753V10.4175ZM17.3612 11.1121C17.3612 11.4957 17.0503 11.8067 16.6667 11.8067V13.3067C17.8787 13.3067 18.8612 12.3242 18.8612 11.1121H17.3612ZM10.8879 20.4742C5.71732 20.4742 1.52576 16.2827 1.52576 11.1121H0.0257568C0.0257568 17.1111 4.88889 21.9742 10.8879 21.9742V20.4742ZM1.52576 11.1121C1.52576 5.94157 5.71732 1.75 10.8879 1.75V0.25C4.88889 0.25 0.0257568 5.11314 0.0257568 11.1121H1.52576ZM10.8879 1.75C16.0584 1.75 20.25 5.94157 20.25 11.1121H21.75C21.75 5.11314 16.8869 0.25 10.8879 0.25V1.75ZM20.25 11.1121V19.7797H21.75V11.1121H20.25ZM21.0688 19.0328L16.7741 18.637L16.6364 20.1307L20.9312 20.5265L21.0688 19.0328ZM16.2729 18.771C14.6977 19.8821 12.8167 20.4772 10.889 20.4742L10.8867 21.9742C13.1248 21.9776 15.3087 21.2867 17.1375 19.9967L16.2729 18.771Z" fill="#B71F25"/>
</svg>
