<svg width="30" height="29" viewBox="0 0 30 29" fill="none" xmlns="http://www.w3.org/2000/svg">
<path fill-rule="evenodd" clip-rule="evenodd" d="M1.5835 14.417C1.58396 8.0163 6.10576 2.50725 12.3836 1.25895C18.6614 0.0106506 24.9468 3.37078 27.3959 9.28442C29.8449 15.1981 27.7756 22.0182 22.4534 25.574C17.1312 29.1297 10.0384 28.4307 5.51266 23.9045C2.99661 21.3882 1.58324 17.9754 1.5835 14.417Z" fill="#B71F25" stroke="white" stroke-width="1.5" stroke-linecap="round" stroke-linejoin="round"/>
<path d="M9.43877 18.916C9.14582 19.2088 9.14573 19.6837 9.43856 19.9766C9.7314 20.2696 10.2063 20.2697 10.4992 19.9768L9.43877 18.916ZM15.5305 14.9475C15.8234 14.6547 15.8235 14.1798 15.5307 13.8868C15.2378 13.5939 14.763 13.5938 14.47 13.8866L15.5305 14.9475ZM14.4697 13.8869C14.1769 14.18 14.1771 14.6548 14.4701 14.9476C14.7631 15.2404 15.238 15.2402 15.5308 14.9472L14.4697 13.8869ZM20.5601 9.91404C20.8529 9.62103 20.8527 9.14616 20.5597 8.85338C20.2667 8.5606 19.7918 8.56078 19.499 8.85378L20.5601 9.91404ZM15.5305 13.8866C15.2375 13.5938 14.7627 13.5939 14.4698 13.8868C14.177 14.1798 14.1771 14.6547 14.47 14.9475L15.5305 13.8866ZM19.5013 19.9768C19.7942 20.2697 20.2691 20.2696 20.5619 19.9766C20.8548 19.6837 20.8547 19.2088 20.5617 18.916L19.5013 19.9768ZM14.4698 14.9473C14.7627 15.2403 15.2375 15.2403 15.5305 14.9475C15.8234 14.6547 15.8235 14.1798 15.5307 13.8868L14.4698 14.9473ZM10.4994 8.85368C10.2066 8.56073 9.73171 8.56064 9.43877 8.85348C9.14582 9.14632 9.14573 9.62119 9.43856 9.91414L10.4994 8.85368ZM10.4992 19.9768L15.5305 14.9475L14.47 13.8866L9.43877 18.916L10.4992 19.9768ZM15.5308 14.9472L20.5601 9.91404L19.499 8.85378L14.4697 13.8869L15.5308 14.9472ZM14.47 14.9475L19.5013 19.9768L20.5617 18.916L15.5305 13.8866L14.47 14.9475ZM15.5307 13.8868L10.4994 8.85368L9.43856 9.91414L14.4698 14.9473L15.5307 13.8868Z" fill="white"/>
</svg>
