<svg width="33" height="34" viewBox="0 0 33 34" fill="none" xmlns="http://www.w3.org/2000/svg">
<path fill-rule="evenodd" clip-rule="evenodd" d="M23.375 3.5H9.625V13.125V31H23.375V13.125V3.5ZM26.125 13.125V0.75H6.875V13.125H0V33.75H6.875H9.625H23.375H26.125H33V13.125H26.125ZM26.125 15.875V31H30.25V15.875H26.125ZM2.75 15.875H6.875V31H2.75V15.875ZM12.375 11.75V7.625H15.125V11.75H12.375ZM12.375 15.875V20H15.125V15.875H12.375ZM17.875 11.75V7.625H20.625V11.75H17.875ZM17.875 15.875V20H20.625V15.875H17.875Z" fill="#B82026"/>
</svg>
