<svg width="33" height="25" viewBox="0 0 33 25" fill="none" xmlns="http://www.w3.org/2000/svg">
<path d="M12.6795 13.0147H1.81135C1.42621 13.0147 1.09909 12.9001 0.883017 12.7443C0.665337 12.5874 0.6 12.4247 0.6 12.3085V1.85937C0.6 1.74324 0.665337 1.58054 0.883017 1.42357C1.09909 1.26777 1.42621 1.15322 1.81135 1.15322H12.6795C13.0646 1.15322 13.3917 1.26777 13.6078 1.42357C13.8255 1.58054 13.8908 1.74324 13.8908 1.85937V12.3085C13.8908 12.4247 13.8255 12.5874 13.6078 12.7443C13.3917 12.9001 13.0646 13.0147 12.6795 13.0147ZM12.6795 23.4639H1.81135C1.42621 23.4639 1.09909 23.3493 0.883017 23.1935C0.665337 23.0365 0.6 22.8738 0.6 22.7577V17.5331C0.6 17.417 0.665337 17.2543 0.883017 17.0973C1.09909 16.9415 1.42621 16.827 1.81135 16.827H12.6795C13.0646 16.827 13.3917 16.9415 13.6078 17.0973C13.8255 17.2543 13.8908 17.417 13.8908 17.5331V22.7577C13.8908 22.8738 13.8255 23.0365 13.6078 23.1935C13.3917 23.3493 13.0646 23.4639 12.6795 23.4639ZM30.793 23.4639H19.9249C19.5398 23.4639 19.2126 23.3493 18.9966 23.1935C18.7789 23.0365 18.7135 22.8738 18.7135 22.7577V12.3085C18.7135 12.1924 18.7789 12.0297 18.9966 11.8727C19.2126 11.7169 19.5398 11.6024 19.9249 11.6024H30.793C31.1782 11.6024 31.5053 11.7169 31.7214 11.8727C31.939 12.0297 32.0044 12.1924 32.0044 12.3085V22.7577C32.0044 22.8738 31.939 23.0365 31.7214 23.1935C31.5053 23.3493 31.1782 23.4639 30.793 23.4639ZM18.7135 7.08396V1.85937C18.7135 1.74324 18.7789 1.58054 18.9966 1.42357C19.2126 1.26777 19.5398 1.15322 19.9249 1.15322H30.793C31.1782 1.15322 31.5053 1.26777 31.7214 1.42357C31.939 1.58054 32.0044 1.74324 32.0044 1.85937V7.08396C32.0044 7.20009 31.939 7.36279 31.7214 7.51975C31.5053 7.67556 31.1782 7.7901 30.793 7.7901H19.9249C19.5398 7.7901 19.2126 7.67556 18.9966 7.51975C18.7789 7.36279 18.7135 7.20009 18.7135 7.08396Z" stroke="#B71F25" stroke-width="1.2"/>
</svg>
