<svg width="13" height="13" viewBox="0 0 13 13" fill="none" xmlns="http://www.w3.org/2000/svg">
<path fill-rule="evenodd" clip-rule="evenodd" d="M6.5 1.18182C5.80161 1.18182 5.11005 1.31938 4.46482 1.58664C3.81959 1.8539 3.23332 2.24564 2.73948 2.73948C2.24564 3.23332 1.8539 3.81959 1.58664 4.46482C1.31938 5.11005 1.18182 5.80161 1.18182 6.5C1.18182 7.19839 1.31938 7.88995 1.58664 8.53518C1.8539 9.18041 2.24564 9.76668 2.73948 10.2605C3.23332 10.7544 3.81959 11.1461 4.46482 11.4134C5.11005 11.6806 5.80161 11.8182 6.5 11.8182C7.91047 11.8182 9.26317 11.2579 10.2605 10.2605C11.2579 9.26317 11.8182 7.91047 11.8182 6.5C11.8182 5.08953 11.2579 3.73683 10.2605 2.73948C9.26317 1.74212 7.91047 1.18182 6.5 1.18182ZM0 6.5C0 2.91023 2.91023 0 6.5 0C10.0898 0 13 2.91023 13 6.5C13 10.0898 10.0898 13 6.5 13C2.91023 13 0 10.0898 0 6.5ZM7.23864 9.30682C7.23864 9.50272 7.16082 9.69059 7.02229 9.82911C6.88377 9.96763 6.6959 10.0455 6.5 10.0455C6.3041 10.0455 6.11623 9.96763 5.97771 9.82911C5.83918 9.69059 5.76136 9.50272 5.76136 9.30682C5.76136 9.11092 5.83918 8.92304 5.97771 8.78452C6.11623 8.646 6.3041 8.56818 6.5 8.56818C6.6959 8.56818 6.88377 8.646 7.02229 8.78452C7.16082 8.92304 7.23864 9.11092 7.23864 9.30682ZM5.39795 4.706C5.55455 4.40818 5.95814 4.13636 6.5 4.13636C7.25814 4.13636 7.68182 4.62977 7.68182 5.02273C7.68182 5.41568 7.25814 5.90909 6.5 5.90909C6.34328 5.90909 6.19298 5.97135 6.08216 6.08216C5.97135 6.19298 5.90909 6.34328 5.90909 6.5V7.09091C5.90909 7.24763 5.97135 7.39793 6.08216 7.50874C6.19298 7.61956 6.34328 7.68182 6.5 7.68182C6.65672 7.68182 6.80702 7.61956 6.91784 7.50874C7.02865 7.39793 7.09091 7.24763 7.09091 7.09091V7.02414C8.05527 6.80373 8.86364 6.05505 8.86364 5.02273C8.86364 3.78418 7.69954 2.95455 6.5 2.95455C5.58823 2.95455 4.74205 3.4125 4.35145 4.15764C4.31319 4.22653 4.28908 4.30239 4.28057 4.38074C4.27206 4.45909 4.2793 4.53835 4.30188 4.61386C4.32446 4.68936 4.36191 4.75959 4.41204 4.82041C4.46216 4.88122 4.52395 4.9314 4.59376 4.96798C4.66357 5.00456 4.73999 5.0268 4.81852 5.0334C4.89705 5.04001 4.97612 5.03083 5.05105 5.00642C5.12599 4.98201 5.19528 4.94285 5.25486 4.89126C5.31443 4.83967 5.36309 4.77668 5.39795 4.706Z" fill="white"/>
</svg>
