<svg width="26" height="26" viewBox="0 0 26 26" fill="none" xmlns="http://www.w3.org/2000/svg">
<path fill-rule="evenodd" clip-rule="evenodd" d="M21.6666 3.24939H4.33325C2.49159 3.24939 1.08325 4.65772 1.08325 6.49939V19.4994C1.08325 21.3411 2.49159 22.7494 4.33325 22.7494H21.6666C23.5083 22.7494 24.9166 21.3411 24.9166 19.4994V6.49939C24.9166 4.65772 23.5083 3.24939 21.6666 3.24939ZM4.33327 5.4164H21.6666C22.0999 5.4164 22.4249 5.63307 22.6416 6.0664L12.9999 12.7831L3.35827 6.0664C3.57494 5.63307 3.89994 5.4164 4.33327 5.4164ZM3.24997 19.4995C3.24997 20.1495 3.6833 20.5829 4.3333 20.5829H21.6666C22.3166 20.5829 22.75 20.1495 22.75 19.4995V8.55788L13.65 14.9495C13.4333 15.0579 13.2166 15.1662 13 15.1662C12.7833 15.1662 12.5666 15.0579 12.35 14.9495L3.24997 8.55788V19.4995Z" fill="#6E6B7B"/>
<mask id="mask0_65_153" style="mask-type:alpha" maskUnits="userSpaceOnUse" x="1" y="3" width="24" height="20">
<path fill-rule="evenodd" clip-rule="evenodd" d="M21.6666 3.24939H4.33325C2.49159 3.24939 1.08325 4.65772 1.08325 6.49939V19.4994C1.08325 21.3411 2.49159 22.7494 4.33325 22.7494H21.6666C23.5083 22.7494 24.9166 21.3411 24.9166 19.4994V6.49939C24.9166 4.65772 23.5083 3.24939 21.6666 3.24939ZM4.33327 5.4164H21.6666C22.0999 5.4164 22.4249 5.63307 22.6416 6.0664L12.9999 12.7831L3.35827 6.0664C3.57494 5.63307 3.89994 5.4164 4.33327 5.4164ZM3.24997 19.4995C3.24997 20.1495 3.6833 20.5829 4.3333 20.5829H21.6666C22.3166 20.5829 22.75 20.1495 22.75 19.4995V8.55788L13.65 14.9495C13.4333 15.0579 13.2166 15.1662 13 15.1662C12.7833 15.1662 12.5666 15.0579 12.35 14.9495L3.24997 8.55788V19.4995Z" fill="white"/>
</mask>
<g mask="url(#mask0_65_153)">
<rect width="26" height="26" fill="#6E6B7B"/>
</g>
</svg>
