<svg width="26" height="30" viewBox="0 0 26 30" fill="none" xmlns="http://www.w3.org/2000/svg">
<path d="M22.8565 17.672V10.4285C22.8565 7.7006 21.7728 5.08438 19.8439 3.15544C17.9149 1.22649 15.2987 0.142822 12.5708 0.142822C9.84282 0.142822 7.22661 1.22649 5.29767 3.15544C3.36872 5.08438 2.28505 7.7006 2.28505 10.4285V17.672C1.46467 18.0613 0.801184 18.7182 0.403658 19.5346C0.00613213 20.351 -0.101768 21.2784 0.097697 22.1643C0.297162 23.0502 0.79212 23.8419 1.5012 24.4091C2.21027 24.9764 3.09127 25.2855 3.99934 25.2857H6.97077C7.23307 26.5774 7.93388 27.7388 8.95447 28.573C9.97505 29.4071 11.2526 29.8628 12.5708 29.8628C13.8889 29.8628 15.1665 29.4071 16.1871 28.573C17.2076 27.7388 17.9085 26.5774 18.1708 25.2857H21.1422C22.0503 25.2855 22.9313 24.9764 23.6403 24.4091C24.3494 23.8419 24.8444 23.0502 25.0438 22.1643C25.2433 21.2784 25.1354 20.351 24.7379 19.5346C24.3403 18.7182 23.6769 18.0613 22.8565 17.672ZM12.5708 27.5714C11.8642 27.5685 11.1758 27.3473 10.5997 26.9382C10.0236 26.529 9.588 25.9519 9.35248 25.2857H15.7891C15.5535 25.9519 15.1179 26.529 14.5418 26.9382C13.9658 27.3473 13.2773 27.5685 12.5708 27.5714ZM21.1422 23H3.99934C3.57421 23.0004 3.16409 22.8428 2.84859 22.5579C2.5331 22.2729 2.33473 21.8809 2.29201 21.458C2.24928 21.035 2.36525 20.6112 2.61739 20.2689C2.86953 19.9267 3.23985 19.6903 3.65648 19.6057C3.91462 19.553 4.14663 19.4127 4.31323 19.2086C4.47984 19.0045 4.57082 18.7491 4.57076 18.4857V10.4285C4.57076 8.3068 5.41362 6.27197 6.91391 4.77168C8.4142 3.27139 10.449 2.42854 12.5708 2.42854C14.6925 2.42854 16.7273 3.27139 18.2276 4.77168C19.7279 6.27197 20.5708 8.3068 20.5708 10.4285V18.4857C20.5707 18.7491 20.6617 19.0045 20.8283 19.2086C20.9949 19.4127 21.2269 19.553 21.4851 19.6057C21.9017 19.6903 22.272 19.9267 22.5241 20.2689C22.7763 20.6112 22.8922 21.035 22.8495 21.458C22.8068 21.8809 22.6084 22.2729 22.2929 22.5579C21.9774 22.8428 21.5673 23.0004 21.1422 23Z" fill="#717579"/>
</svg>
