<svg width="57" height="41" viewBox="0 0 57 41" fill="none" xmlns="http://www.w3.org/2000/svg">
<line x1="56.5" y1="2.18557e-08" x2="56.5" y2="41" stroke="#6E6B7B"/>
<path d="M2.28574 12H29.7143C30.0174 12 30.3081 11.8795 30.5224 11.6652C30.7368 11.4509 30.8572 11.1602 30.8572 10.8571C30.8572 10.554 30.7368 10.2633 30.5224 10.049C30.3081 9.83464 30.0174 9.71423 29.7143 9.71423H2.28574C1.98264 9.71423 1.69195 9.83464 1.47762 10.049C1.26329 10.2633 1.14288 10.554 1.14288 10.8571C1.14288 11.1602 1.26329 11.4509 1.47762 11.6652C1.69195 11.8795 1.98264 12 2.28574 12Z" fill="#171B1E"/>
<path d="M29.7143 18.8572H2.28574C1.98264 18.8572 1.69195 18.9776 1.47762 19.1919C1.26329 19.4062 1.14288 19.6969 1.14288 20C1.14288 20.3031 1.26329 20.5938 1.47762 20.8082C1.69195 21.0225 1.98264 21.1429 2.28574 21.1429H29.7143C30.0174 21.1429 30.3081 21.0225 30.5224 20.8082C30.7368 20.5938 30.8572 20.3031 30.8572 20C30.8572 19.6969 30.7368 19.4062 30.5224 19.1919C30.3081 18.9776 30.0174 18.8572 29.7143 18.8572Z" fill="#171B1E"/>
<path d="M29.7143 28H2.28574C1.98264 28 1.69195 28.1204 1.47762 28.3347C1.26329 28.5491 1.14288 28.8397 1.14288 29.1429C1.14288 29.446 1.26329 29.7366 1.47762 29.951C1.69195 30.1653 1.98264 30.2857 2.28574 30.2857H29.7143C30.0174 30.2857 30.3081 30.1653 30.5224 29.951C30.7368 29.7366 30.8572 29.446 30.8572 29.1429C30.8572 28.8397 30.7368 28.5491 30.5224 28.3347C30.3081 28.1204 30.0174 28 29.7143 28Z" fill="#171B1E"/>
</svg>
