<svg width="33" height="29" viewBox="0 0 33 29" fill="none" xmlns="http://www.w3.org/2000/svg">
<path d="M1.1 9.3501C0.95554 9.35007 0.81249 9.37889 0.679022 9.43489C0.545553 9.49089 0.424281 9.57299 0.322132 9.67649C0.219983 9.77999 0.138958 9.90287 0.0836858 10.0381C0.0284137 10.1733 -2.30277e-05 10.3183 1.39914e-08 10.4647V17.5855C7.90315e-09 17.7319 0.0284531 17.8768 0.0837333 18.0121C0.139014 18.1473 0.220039 18.2702 0.322183 18.3737C0.424328 18.4772 0.545591 18.5592 0.679049 18.6153C0.812507 18.6713 0.955546 18.7001 1.1 18.7001C1.24445 18.7001 1.3875 18.6713 1.52095 18.6153C1.65441 18.5592 1.77567 18.4772 1.87782 18.3737C1.97996 18.2702 2.06099 18.1473 2.11627 18.0121C2.17155 17.8768 2.2 17.7319 2.2 17.5855V10.4647C2.20002 10.3183 2.17159 10.1733 2.11632 10.0381C2.06104 9.90287 1.98002 9.77999 1.87787 9.67649C1.77572 9.57299 1.65445 9.49089 1.52098 9.43489C1.38751 9.37889 1.24446 9.35007 1.1 9.3501Z" fill="#B71F25"/>
<path d="M5.49996 5.06006C5.3555 5.06004 5.21245 5.0889 5.07898 5.14502C4.94552 5.20113 4.82424 5.28339 4.7221 5.38709C4.61995 5.4908 4.53892 5.61391 4.48365 5.74941C4.42838 5.88491 4.39994 6.03014 4.39996 6.1768V21.8733C4.39996 22.1695 4.51586 22.4536 4.72215 22.663C4.92844 22.8724 5.20823 22.9901 5.49996 22.9901C5.7917 22.9901 6.07149 22.8724 6.27778 22.663C6.48407 22.4536 6.59996 22.1695 6.59996 21.8733V6.1768C6.59999 6.03014 6.57155 5.88491 6.51628 5.74941C6.46101 5.61391 6.37998 5.4908 6.27783 5.38709C6.17568 5.28339 6.05441 5.20113 5.92094 5.14502C5.78747 5.0889 5.64442 5.06003 5.49996 5.06006Z" fill="#B71F25"/>
<path d="M9.89999 1.42712e-08C9.75553 -2.32686e-05 9.61248 0.0289832 9.47901 0.0853608C9.34554 0.141738 9.22427 0.224383 9.12212 0.328575C9.01997 0.432767 8.93895 0.556466 8.88367 0.692604C8.8284 0.828742 8.79996 0.974653 8.79999 1.122V26.928C8.79999 27.2256 8.91588 27.511 9.12217 27.7214C9.32846 27.9318 9.60825 28.05 9.89999 28.05C10.1917 28.05 10.4715 27.9318 10.6778 27.7214C10.8841 27.511 11 27.2256 11 26.928V1.122C11 0.97465 10.9716 0.828739 10.9163 0.692601C10.861 0.556463 10.78 0.432767 10.6779 0.328575C10.5757 0.224383 10.4544 0.141737 10.321 0.0853596C10.1875 0.0289821 10.0444 -2.34882e-05 9.89999 1.42712e-08Z" fill="#B71F25"/>
<path d="M14.3 5.06006C14.1556 5.06003 14.0125 5.0889 13.879 5.14502C13.7456 5.20113 13.6243 5.28339 13.5221 5.38709C13.42 5.4908 13.339 5.61391 13.2837 5.74941C13.2284 5.88491 13.2 6.03014 13.2 6.1768V21.8733C13.2 22.1695 13.3159 22.4536 13.5222 22.663C13.7285 22.8724 14.0083 22.9901 14.3 22.9901C14.5918 22.9901 14.8715 22.8724 15.0778 22.663C15.2841 22.4536 15.4 22.1695 15.4 21.8733V6.1768C15.4 6.03014 15.3716 5.88491 15.3163 5.74941C15.2611 5.61391 15.18 5.4908 15.0779 5.38709C14.9757 5.28339 14.8545 5.20113 14.721 5.14502C14.5875 5.0889 14.4445 5.06003 14.3 5.06006Z" fill="#B71F25"/>
<path d="M18.7 9.3501C18.5556 9.35007 18.4125 9.37889 18.2791 9.43489C18.1456 9.49089 18.0243 9.57299 17.9222 9.67649C17.82 9.77999 17.739 9.90287 17.6837 10.0381C17.6285 10.1733 17.6 10.3183 17.6 10.4647V17.5855C17.6 17.8811 17.7159 18.1646 17.9222 18.3737C18.1285 18.5827 18.4083 18.7001 18.7 18.7001C18.9918 18.7001 19.2716 18.5827 19.4779 18.3737C19.6841 18.1646 19.8 17.8811 19.8 17.5855V10.4647C19.8001 10.3183 19.7716 10.1733 19.7164 10.0381C19.6611 9.90287 19.5801 9.77999 19.4779 9.67649C19.3758 9.57299 19.2545 9.49089 19.121 9.43489C18.9875 9.37889 18.8445 9.35007 18.7 9.3501Z" fill="#B71F25"/>
<path d="M23.1001 5.06006C22.9556 5.06003 22.8126 5.0889 22.6791 5.14502C22.5456 5.20113 22.4243 5.28339 22.3222 5.38709C22.22 5.4908 22.139 5.61391 22.0837 5.74941C22.0285 5.88491 22 6.03014 22.0001 6.1768V21.8733C22.0001 22.1695 22.116 22.4536 22.3222 22.663C22.5285 22.8724 22.8083 22.9901 23.1001 22.9901C23.3918 22.9901 23.6716 22.8724 23.8779 22.663C24.0842 22.4536 24.2001 22.1695 24.2001 21.8733V6.1768C24.2001 6.03014 24.1716 5.88491 24.1164 5.74941C24.0611 5.61391 23.9801 5.4908 23.8779 5.38709C23.7758 5.28339 23.6545 5.20113 23.521 5.14502C23.3876 5.0889 23.2445 5.06004 23.1001 5.06006Z" fill="#B71F25"/>
<path d="M27.5 9.3501C27.3556 9.35007 27.2125 9.37889 27.079 9.43489C26.9456 9.49089 26.8243 9.57299 26.7222 9.67649C26.62 9.77999 26.539 9.90287 26.4837 10.0381C26.4284 10.1733 26.4 10.3183 26.4 10.4647V17.5855C26.4 17.8811 26.5159 18.1646 26.7222 18.3737C26.9285 18.5827 27.2083 18.7001 27.5 18.7001C27.7918 18.7001 28.0716 18.5827 28.2778 18.3737C28.4841 18.1646 28.6 17.8811 28.6 17.5855V10.4647C28.6 10.3183 28.5716 10.1733 28.5163 10.0381C28.4611 9.90287 28.38 9.77999 28.2779 9.67649C28.1757 9.57299 28.0545 9.49089 27.921 9.43489C27.7875 9.37889 27.6445 9.35007 27.5 9.3501Z" fill="#B71F25"/>
<rect x="30.8" y="12.8701" width="2.2" height="2.2" rx="1.1" fill="#B82026"/>
</svg>
